<svg width="640" height="640" viewBox="0 0 640 640" fill="none" xmlns="http://www.w3.org/2000/svg">
  <defs>
    <linearGradient id="paint0_linear" x1="87" y1="42" x2="553" y2="598" gradientUnits="userSpaceOnUse">
      <stop stop-color="#1B4AC8"/>
      <stop offset="0.45" stop-color="#0A2A6C"/>
      <stop offset="1" stop-color="#09133F"/>
    </linearGradient>
    <linearGradient id="paint1_linear" x1="100" y1="180" x2="512" y2="524" gradientUnits="userSpaceOnUse">
      <stop stop-color="#6E8CFF" stop-opacity="0.9"/>
      <stop offset="1" stop-color="#3B67FF" stop-opacity="0.3"/>
    </linearGradient>
    <filter id="glow" x="-20%" y="-20%" width="140%" height="140%">
      <feGaussianBlur stdDeviation="16" result="coloredBlur"/>
      <feMerge>
        <feMergeNode in="coloredBlur"/>
        <feMergeNode in="SourceGraphic"/>
      </feMerge>
    </filter>
  </defs>
  <rect width="640" height="640" rx="48" fill="url(#paint0_linear)"/>
  <circle cx="520" cy="96" r="48" fill="#1B4AC8" opacity="0.65"/>
  <circle cx="120" cy="520" r="36" fill="#4F7BFF" opacity="0.4"/>
  <path d="M96 432L224 200L320 368L424 176L544 432" stroke="url(#paint1_linear)" stroke-width="18" stroke-linecap="round" stroke-linejoin="round" filter="url(#glow)"/>
  <g opacity="0.4" stroke="#C7D2FF" stroke-width="1" stroke-dasharray="8 18">
    <circle cx="320" cy="320" r="240"/>
    <circle cx="320" cy="320" r="180"/>
    <circle cx="320" cy="320" r="120"/>
  </g>
  <rect x="160" y="160" width="320" height="320" rx="24" fill="rgba(4,12,31,0.55)" stroke="#4F7BFF" stroke-opacity="0.4"/>
  <rect x="196" y="196" width="248" height="120" rx="16" fill="rgba(15,30,68,0.8)" stroke="#8BA7FF" stroke-opacity="0.5"/>
  <rect x="196" y="332" width="248" height="120" rx="16" fill="rgba(11,22,52,0.8)" stroke="#4F7BFF" stroke-opacity="0.4"/>
  <circle cx="220" cy="228" r="12" fill="#4F7BFF"/>
  <circle cx="252" cy="228" r="12" fill="#87A5FF"/>
  <circle cx="284" cy="228" r="12" fill="#1B4AC8"/>
  <rect x="220" y="260" width="160" height="12" rx="6" fill="#BFD1FF" opacity="0.7"/>
  <rect x="220" y="292" width="200" height="12" rx="6" fill="#6D87FF" opacity="0.6"/>
  <rect x="220" y="364" width="200" height="12" rx="6" fill="#8BAFFF" opacity="0.8"/>
  <rect x="220" y="396" width="168" height="12" rx="6" fill="#4F7BFF" opacity="0.6"/>
  <rect x="220" y="428" width="210" height="12" rx="6" fill="#91B0FF" opacity="0.5"/>
</svg>

